<?xml version="1.0" encoding="us-ascii" standalone="no"?><svg xmlns="http://www.w3.org/2000/svg" xmlns:xlink="http://www.w3.org/1999/xlink" contentStyleType="text/css" height="253px" preserveAspectRatio="none" style="width:305px;height:253px;background:#FFFFFF;" version="1.1" viewBox="0 0 305 253" width="305px" zoomAndPan="magnify"><defs/><g><!--class UserService--><g id="elem_UserService"><rect codeLine="14" fill="#98FB98" height="89.5977" id="UserService" rx="2.5" ry="2.5" style="stroke:#008000;stroke-width:0.5;" width="251" x="19" y="7"/><ellipse cx="100.75" cy="27.3105" fill="#ADD1B2" rx="11" ry="11" style="stroke:#181818;stroke-width:1.0;"/><path d="M103.2231,33.4536 Q102.6421,33.7524 102.0029,33.9019 Q101.3638,34.0513 100.6582,34.0513 Q98.1514,34.0513 96.8315,32.3994 Q95.5117,30.7476 95.5117,27.6265 Q95.5117,24.4971 96.8315,22.8452 Q98.1514,21.1934 100.6582,21.1934 Q101.3638,21.1934 102.0112,21.3428 Q102.6587,21.4922 103.2231,21.791 L103.2231,24.5137 Q102.5923,23.9326 101.9988,23.6628 Q101.4053,23.3931 100.7744,23.3931 Q99.4297,23.3931 98.7449,24.4597 Q98.0601,25.5264 98.0601,27.6265 Q98.0601,29.7183 98.7449,30.7849 Q99.4297,31.8516 100.7744,31.8516 Q101.4053,31.8516 101.9988,31.5818 Q102.5923,31.312 103.2231,30.731 Z " fill="#000000"/><text fill="#000000" font-family="sans-serif" font-size="12" font-style="italic" lengthAdjust="spacing" textLength="52" x="134.75" y="23.6016">&#171;Service&#187;</text><text fill="#000000" font-family="sans-serif" font-size="14" lengthAdjust="spacing" textLength="79" x="121.25" y="39.668">UserService</text><line style="stroke:#008000;stroke-width:0.5;" x1="20" x2="269" y1="47.6211" y2="47.6211"/><line style="stroke:#008000;stroke-width:0.5;" x1="20" x2="269" y1="55.6211" y2="55.6211"/><ellipse cx="30" cy="69.3652" fill="#84BE84" rx="3" ry="3" style="stroke:#038048;stroke-width:1.0;"/><text fill="#000000" font-family="sans-serif" font-size="14" lengthAdjust="spacing" textLength="201" x="39" y="73.1563">register(user: UserDTO): User</text><ellipse cx="30" cy="85.8535" fill="#84BE84" rx="3" ry="3" style="stroke:#038048;stroke-width:1.0;"/><text fill="#000000" font-family="sans-serif" font-size="14" lengthAdjust="spacing" textLength="225" x="39" y="89.6445">login(username: String): Boolean</text></g><!--class User--><g id="elem_User"><rect codeLine="19" fill="#ADD8E6" height="89.5977" id="User" rx="2.5" ry="2.5" style="stroke:#0000FF;stroke-width:0.5;" width="113" x="7" y="156.6"/><ellipse cx="40.9" cy="176.9105" fill="#ADD1B2" rx="11" ry="11" style="stroke:#181818;stroke-width:1.0;"/><path d="M43.3731,183.0536 Q42.7921,183.3524 42.1529,183.5019 Q41.5138,183.6513 40.8082,183.6513 Q38.3014,183.6513 36.9815,181.9994 Q35.6617,180.3476 35.6617,177.2265 Q35.6617,174.0971 36.9815,172.4452 Q38.3014,170.7934 40.8082,170.7934 Q41.5138,170.7934 42.1612,170.9428 Q42.8087,171.0922 43.3731,171.391 L43.3731,174.1137 Q42.7423,173.5326 42.1488,173.2628 Q41.5553,172.9931 40.9244,172.9931 Q39.5797,172.9931 38.8949,174.0597 Q38.2101,175.1264 38.2101,177.2265 Q38.2101,179.3183 38.8949,180.3849 Q39.5797,181.4516 40.9244,181.4516 Q41.5553,181.4516 42.1488,181.1818 Q42.7423,180.912 43.3731,180.331 Z " fill="#000000"/><text fill="#000000" font-family="sans-serif" font-size="12" font-style="italic" lengthAdjust="spacing" textLength="43" x="57.1" y="173.2016">&#171;Entity&#187;</text><text fill="#000000" font-family="sans-serif" font-size="14" lengthAdjust="spacing" textLength="31" x="63.1" y="189.268">User</text><line style="stroke:#0000FF;stroke-width:0.5;" x1="8" x2="119" y1="197.2211" y2="197.2211"/><rect fill="none" height="6" style="stroke:#C82930;stroke-width:1.0;" width="6" x="15" y="207.9652"/><text fill="#000000" font-family="sans-serif" font-size="14" lengthAdjust="spacing" textLength="55" x="27" y="214.7563">id: Long</text><rect fill="none" height="6" style="stroke:#C82930;stroke-width:1.0;" width="6" x="15" y="224.4535"/><text fill="#000000" font-family="sans-serif" font-size="14" lengthAdjust="spacing" textLength="87" x="27" y="231.2445">name: String</text><line style="stroke:#0000FF;stroke-width:0.5;" x1="8" x2="119" y1="238.1977" y2="238.1977"/></g><!--class UserDTO--><g id="elem_UserDTO"><rect codeLine="24" fill="#F5DEB3" height="89.5977" id="UserDTO" rx="2.5" ry="2.5" style="stroke:#D2B48C;stroke-width:0.5;" width="143" x="155" y="156.6"/><ellipse cx="192.5" cy="176.9105" fill="#ADD1B2" rx="11" ry="11" style="stroke:#181818;stroke-width:1.0;"/><path d="M194.9731,183.0536 Q194.3921,183.3524 193.7529,183.5019 Q193.1138,183.6513 192.4082,183.6513 Q189.9014,183.6513 188.5815,181.9994 Q187.2617,180.3476 187.2617,177.2265 Q187.2617,174.0971 188.5815,172.4452 Q189.9014,170.7934 192.4082,170.7934 Q193.1138,170.7934 193.7612,170.9428 Q194.4087,171.0922 194.9731,171.391 L194.9731,174.1137 Q194.3423,173.5326 193.7488,173.2628 Q193.1553,172.9931 192.5244,172.9931 Q191.1797,172.9931 190.4949,174.0597 Q189.8101,175.1264 189.8101,177.2265 Q189.8101,179.3183 190.4949,180.3849 Q191.1797,181.4516 192.5244,181.4516 Q193.1553,181.4516 193.7488,181.1818 Q194.3423,180.912 194.9731,180.331 Z " fill="#000000"/><text fill="#000000" font-family="sans-serif" font-size="12" font-style="italic" lengthAdjust="spacing" textLength="38" x="223" y="173.2016">&#171;DTO&#187;</text><text fill="#000000" font-family="sans-serif" font-size="14" lengthAdjust="spacing" textLength="61" x="211.5" y="189.268">UserDTO</text><line style="stroke:#D2B48C;stroke-width:0.5;" x1="156" x2="297" y1="197.2211" y2="197.2211"/><ellipse cx="166" cy="210.9652" fill="none" rx="3" ry="3" style="stroke:#038048;stroke-width:1.0;"/><text fill="#000000" font-family="sans-serif" font-size="14" lengthAdjust="spacing" textLength="117" x="175" y="214.7563">username: String</text><ellipse cx="166" cy="227.4535" fill="none" rx="3" ry="3" style="stroke:#038048;stroke-width:1.0;"/><text fill="#000000" font-family="sans-serif" font-size="14" lengthAdjust="spacing" textLength="115" x="175" y="231.2445">password: String</text><line style="stroke:#D2B48C;stroke-width:0.5;" x1="156" x2="297" y1="238.1977" y2="238.1977"/></g><!--link UserService to User--><g id="link_UserService_User"><path codeLine="29" d="M120.2,97.09 C109.95,115.77 100.9263,132.2099 90.6763,150.8899 " fill="none" id="UserService-to-User" style="stroke:#181818;stroke-width:1.0;"/><polygon fill="#181818" points="87.79,156.15,95.6262,150.184,90.1953,151.7665,88.6127,146.3356,87.79,156.15" style="stroke:#181818;stroke-width:1.0;"/></g><!--link UserService to UserDTO--><g id="link_UserService_UserDTO"><path codeLine="30" d="M169.1,97.09 C179.48,115.77 188.6278,132.2241 198.9978,150.9041 " fill="none" id="UserService-to-UserDTO" style="stroke:#181818;stroke-width:1.0;stroke-dasharray:7.0,7.0;"/><polygon fill="#181818" points="201.91,156.15,201.039,146.3397,199.4832,151.7784,194.0445,150.2227,201.91,156.15" style="stroke:#181818;stroke-width:1.0;"/></g><!--SRC=[RO_DIWCn4CVlUOgvgSZs0PQoXrNnKb1enNFO7TBGD2cJh28YUF0Y2hv1wHFqwaLzcwxw5cOtjiPkSnfcVlb_x47z_5ZF7xxl5wlvqzVou_DzMIzULsylp4wadd7YKoWKjnPk6VYNys8Yo5IwF3BAKBy_HBgI1MOPd7E5fuIe0sYeHEf0Vy1kkHFjfBlnu42AiSjLXLsr3RCvxzOw7frvw7ACt7L5md74DRjZB3Iyi4Y_II7Et3G_91JIEgJzobDfotg9Wp0rW392wlQg-HHJ63gIMdWWDqRXjWz4DHhzH9Of38mMpHmB_F_cBM6TlOsrxTViPfw-zbrZYRXRacGXTRpizRAr0_i1]--></g></svg>