<?xml version="1.0" encoding="us-ascii" standalone="no"?><svg xmlns="http://www.w3.org/2000/svg" xmlns:xlink="http://www.w3.org/1999/xlink" contentStyleType="text/css" height="118px" preserveAspectRatio="none" style="width:347px;height:118px;background:#FFFFFF;" version="1.1" viewBox="0 0 347 118" width="347px" zoomAndPan="magnify"><defs/><g><!--class School--><g id="elem_School"><rect codeLine="1" fill="#F1F1F1" height="97.4648" id="School" rx="2.5" ry="2.5" style="stroke:#181818;stroke-width:0.5;" width="326" x="7" y="7"/><ellipse cx="142.75" cy="23" fill="#ADD1B2" rx="11" ry="11" style="stroke:#181818;stroke-width:1.0;"/><path d="M145.2231,29.1431 Q144.6421,29.4419 144.0029,29.5913 Q143.3638,29.7407 142.6582,29.7407 Q140.1514,29.7407 138.8315,28.0889 Q137.5117,26.437 137.5117,23.3159 Q137.5117,20.1865 138.8315,18.5347 Q140.1514,16.8828 142.6582,16.8828 Q143.3638,16.8828 144.0112,17.0322 Q144.6587,17.1816 145.2231,17.4805 L145.2231,20.2031 Q144.5923,19.6221 143.9988,19.3523 Q143.4053,19.0825 142.7744,19.0825 Q141.4297,19.0825 140.7449,20.1492 Q140.0601,21.2158 140.0601,23.3159 Q140.0601,25.4077 140.7449,26.4744 Q141.4297,27.541 142.7744,27.541 Q143.4053,27.541 143.9988,27.2712 Q144.5923,27.0015 145.2231,26.4204 Z " fill="#000000"/><text fill="#000000" font-family="sans-serif" font-size="14" lengthAdjust="spacing" textLength="46" x="163.25" y="28.291">School</text><line style="stroke:#181818;stroke-width:0.5;" x1="8" x2="332" y1="39" y2="39"/><line style="stroke:#181818;stroke-width:0.5;" x1="8" x2="332" y1="47" y2="47"/><ellipse cx="18" cy="60.7441" fill="#84BE84" rx="3" ry="3" style="stroke:#038048;stroke-width:1.0;"/><text fill="#000000" font-family="sans-serif" font-size="14" lengthAdjust="spacing" textLength="167" x="27" y="64.5352">calculateGrade(): double</text><rect fill="#F24D5C" height="6" style="stroke:#C82930;stroke-width:1.0;" width="6" x="15" y="74.2324"/><text fill="#000000" font-family="sans-serif" font-size="14" lengthAdjust="spacing" textLength="239" x="27" y="81.0234">setName(in newName: String): void</text><polygon fill="#FFFF44" points="18,88.7207,22,92.7207,18,96.7207,14,92.7207" style="stroke:#B38D22;stroke-width:1.0;"/><text fill="#000000" font-family="sans-serif" font-size="14" lengthAdjust="spacing" textLength="300" x="27" y="97.5117">processData(inout data: DataType): boolean</text></g><!--SRC=[7Or12i9034NtFKN0JKMymAm5Tsxg1T9Cq84uAPECHSIxc_Ql7ly_-2He1XCzLUKxGEG4X49TqFdQCFDuJ92rpyBxV0PZl-6BnrAXyhfXWibRgOymtrhoxXrWQKfiTa77SBKxvC04Mt7_B1ps7A-CTVZz0G00]--></g></svg>