<?xml version="1.0" encoding="us-ascii" standalone="no"?><svg xmlns="http://www.w3.org/2000/svg" xmlns:xlink="http://www.w3.org/1999/xlink" contentStyleType="text/css" height="132px" preserveAspectRatio="none" style="width:743px;height:132px;background:#FFFFFF;" version="1.1" viewBox="0 0 743 132" width="743px" zoomAndPan="magnify"><defs/><g><!--class ChessType--><g id="elem_ChessType"><rect codeLine="2" fill="#F1F1F1" height="100.8281" id="ChessType" rx="2.5" ry="2.5" style="stroke:#181818;stroke-width:0.5;" width="104" x="632" y="15.5"/><ellipse cx="647" cy="31.5" fill="#EB937F" rx="11" ry="11" style="stroke:#181818;stroke-width:1.0;"/><path d="M645.8594,32.2969 L645.8594,34.7969 L650.1875,34.7969 L650.1875,33.875 Q650.1875,33.2656 650.4219,33 Q650.6719,32.7344 651.0469,32.7344 Q651.4219,32.7344 651.6563,33 Q651.8906,33.2656 651.8906,33.875 L651.8906,36.5 L643.8906,36.5 Q643.2656,36.5 643,36.2656 Q642.75,36.0313 642.75,35.6406 Q642.75,35.2656 643.0156,35.0313 Q643.2813,34.7969 643.8906,34.7969 L644.1563,34.7969 L644.1563,28.1406 L643.8906,28.1406 Q643.2656,28.1406 643,27.9063 Q642.75,27.6719 642.75,27.2813 Q642.75,26.9063 643,26.6719 Q643.2656,26.4375 643.8906,26.4375 L651.5156,26.4375 L651.5156,29.0313 Q651.5156,29.6406 651.2813,29.9063 Q651.0625,30.1563 650.6719,30.1563 Q650.2969,30.1563 650.0625,29.9063 Q649.8281,29.6406 649.8281,29.0313 L649.8281,28.1406 L645.8594,28.1406 L645.8594,30.5938 L647.3438,30.5938 Q647.3438,29.9375 647.4688,29.75 Q647.7344,29.3438 648.2031,29.3438 Q648.5781,29.3438 648.8125,29.6094 Q649.0469,29.8594 649.0469,30.4688 L649.0469,32.4375 Q649.0469,32.9844 648.9219,33.1719 Q648.6563,33.5625 648.2031,33.5625 Q647.7344,33.5625 647.4688,33.1563 Q647.3438,32.9688 647.3438,32.2969 L645.8594,32.2969 Z " fill="#000000"/><text fill="#000000" font-family="sans-serif" font-size="14" lengthAdjust="spacing" textLength="72" x="661" y="37.2285">ChessType</text><line style="stroke:#181818;stroke-width:0.5;" x1="633" x2="735" y1="47.5" y2="47.5"/><text fill="#000000" font-family="sans-serif" font-size="14" lengthAdjust="spacing" textLength="33" x="638" y="66.0332">black</text><text fill="#000000" font-family="sans-serif" font-size="14" lengthAdjust="spacing" textLength="32" x="638" y="83.6426">white</text><text fill="#000000" font-family="sans-serif" font-size="14" lengthAdjust="spacing" textLength="34" x="638" y="101.252">blank</text><line style="stroke:#181818;stroke-width:0.5;" x1="633" x2="735" y1="108.3281" y2="108.3281"/></g><!--class Cell--><g id="elem_Cell"><rect codeLine="8" fill="#F1F1F1" height="100.8281" id="Cell" rx="2.5" ry="2.5" style="stroke:#181818;stroke-width:0.5;" width="171" x="337" y="15.5"/><ellipse cx="406.25" cy="31.5" fill="#ADD1B2" rx="11" ry="11" style="stroke:#181818;stroke-width:1.0;"/><path d="M409.0156,27.375 Q409.1719,27.1563 409.3594,27.0469 Q409.5469,26.9375 409.7656,26.9375 Q410.1406,26.9375 410.375,27.2031 Q410.6094,27.4531 410.6094,28.0625 L410.6094,29.5156 Q410.6094,30.125 410.375,30.3906 Q410.1406,30.6563 409.7656,30.6563 Q409.4219,30.6563 409.2188,30.4531 Q409.0156,30.2656 408.9063,29.75 Q408.8594,29.3906 408.6719,29.2031 Q408.3438,28.8281 407.7344,28.6094 Q407.125,28.3906 406.5,28.3906 Q405.7344,28.3906 405.0938,28.7188 Q404.4688,29.0469 403.9688,29.7969 Q403.4844,30.5469 403.4844,31.5781 L403.4844,32.6719 Q403.4844,33.9063 404.375,34.7344 Q405.2656,35.5469 406.8594,35.5469 Q407.7969,35.5469 408.4531,35.2969 Q408.8438,35.1406 409.2656,34.7031 Q409.5313,34.4375 409.6719,34.3594 Q409.8281,34.2813 410.0313,34.2813 Q410.3594,34.2813 410.6094,34.5469 Q410.875,34.7969 410.875,35.1406 Q410.875,35.4844 410.5313,35.8906 Q410.0313,36.4688 409.2344,36.7969 Q408.1563,37.25 406.8594,37.25 Q405.3438,37.25 404.1406,36.625 Q403.1563,36.125 402.4688,35.0625 Q401.7813,33.9844 401.7813,32.7031 L401.7813,31.5469 Q401.7813,30.2188 402.3906,29.0781 Q403.0156,27.9219 404.1094,27.3125 Q405.2031,26.6875 406.4375,26.6875 Q407.1719,26.6875 407.8125,26.8594 Q408.4688,27.0156 409.0156,27.375 Z " fill="#000000"/><text fill="#000000" font-family="sans-serif" font-size="14" lengthAdjust="spacing" textLength="24" x="426.75" y="37.2285">Cell</text><line style="stroke:#181818;stroke-width:0.5;" x1="338" x2="507" y1="47.5" y2="47.5"/><rect fill="none" height="6" style="stroke:#C82930;stroke-width:1.0;" width="6" x="345" y="58.8047"/><text fill="#000000" font-family="sans-serif" font-size="14" lengthAdjust="spacing" textLength="145" x="357" y="66.0332">ChessType chessType</text><rect fill="none" height="6" style="stroke:#C82930;stroke-width:1.0;" width="6" x="345" y="76.4141"/><text fill="#000000" font-family="sans-serif" font-size="14" lengthAdjust="spacing" textLength="25" x="357" y="83.6426">int x</text><rect fill="none" height="6" style="stroke:#C82930;stroke-width:1.0;" width="6" x="345" y="94.0234"/><text fill="#000000" font-family="sans-serif" font-size="14" lengthAdjust="spacing" textLength="26" x="357" y="101.252">int y</text><line style="stroke:#181818;stroke-width:0.5;" x1="338" x2="507" y1="108.3281" y2="108.3281"/></g><!--class CheckBoard--><g id="elem_CheckBoard"><rect codeLine="15" fill="#F1F1F1" height="118.4375" id="CheckBoard" rx="2.5" ry="2.5" style="stroke:#181818;stroke-width:0.5;" width="269" x="7" y="7"/><ellipse cx="98.25" cy="23" fill="#ADD1B2" rx="11" ry="11" style="stroke:#181818;stroke-width:1.0;"/><path d="M101.0156,18.875 Q101.1719,18.6563 101.3594,18.5469 Q101.5469,18.4375 101.7656,18.4375 Q102.1406,18.4375 102.375,18.7031 Q102.6094,18.9531 102.6094,19.5625 L102.6094,21.0156 Q102.6094,21.625 102.375,21.8906 Q102.1406,22.1563 101.7656,22.1563 Q101.4219,22.1563 101.2188,21.9531 Q101.0156,21.7656 100.9063,21.25 Q100.8594,20.8906 100.6719,20.7031 Q100.3438,20.3281 99.7344,20.1094 Q99.125,19.8906 98.5,19.8906 Q97.7344,19.8906 97.0938,20.2188 Q96.4688,20.5469 95.9688,21.2969 Q95.4844,22.0469 95.4844,23.0781 L95.4844,24.1719 Q95.4844,25.4063 96.375,26.2344 Q97.2656,27.0469 98.8594,27.0469 Q99.7969,27.0469 100.4531,26.7969 Q100.8438,26.6406 101.2656,26.2031 Q101.5313,25.9375 101.6719,25.8594 Q101.8281,25.7813 102.0313,25.7813 Q102.3594,25.7813 102.6094,26.0469 Q102.875,26.2969 102.875,26.6406 Q102.875,26.9844 102.5313,27.3906 Q102.0313,27.9688 101.2344,28.2969 Q100.1563,28.75 98.8594,28.75 Q97.3438,28.75 96.1406,28.125 Q95.1563,27.625 94.4688,26.5625 Q93.7813,25.4844 93.7813,24.2031 L93.7813,23.0469 Q93.7813,21.7188 94.3906,20.5781 Q95.0156,19.4219 96.1094,18.8125 Q97.2031,18.1875 98.4375,18.1875 Q99.1719,18.1875 99.8125,18.3594 Q100.4688,18.5156 101.0156,18.875 Z " fill="#000000"/><text fill="#000000" font-family="sans-serif" font-size="14" lengthAdjust="spacing" textLength="78" x="118.75" y="28.7285">CheckBoard</text><line style="stroke:#181818;stroke-width:0.5;" x1="8" x2="275" y1="39" y2="39"/><rect fill="none" height="6" style="stroke:#C82930;stroke-width:1.0;" width="6" x="15" y="50.3047"/><text fill="#000000" font-family="sans-serif" font-size="14" lengthAdjust="spacing" textLength="167" x="27" y="57.5332">ChessType[][] chessBoard</text><rect fill="none" height="6" style="stroke:#C82930;stroke-width:1.0;" width="6" x="15" y="67.9141"/><text fill="#000000" font-family="sans-serif" font-size="14" lengthAdjust="spacing" textLength="58" x="27" y="75.1426">int max_x</text><rect fill="none" height="6" style="stroke:#C82930;stroke-width:1.0;" width="6" x="15" y="85.5234"/><text fill="#000000" font-family="sans-serif" font-size="14" lengthAdjust="spacing" textLength="59" x="27" y="92.752">int max_y</text><line style="stroke:#181818;stroke-width:0.5;" x1="8" x2="275" y1="99.8281" y2="99.8281"/><ellipse cx="18" cy="114.1328" fill="#84BE84" rx="3" ry="3" style="stroke:#038048;stroke-width:1.0;"/><text fill="#000000" font-family="sans-serif" font-size="14" lengthAdjust="spacing" textLength="243" x="27" y="118.3613">putChess(int x, int y, ChessType): void</text></g><!--link CheckBoard to Cell--><g id="link_CheckBoard_Cell"><path codeLine="22" d="M276.28,66 C296.84,66 311.56,66 330.66,66 " fill="none" id="CheckBoard-to-Cell" style="stroke:#181818;stroke-width:1.0;"/><polygon fill="#181818" points="336.66,66,327.66,62,331.66,66,327.66,70,336.66,66" style="stroke:#181818;stroke-width:1.0;"/></g><!--link Cell to ChessType--><g id="link_Cell_ChessType"><path codeLine="23" d="M508.11,66 C548.93,66 590.56,66 625.8,66 " fill="none" id="Cell-to-ChessType" style="stroke:#181818;stroke-width:1.0;"/><polygon fill="#181818" points="631.8,66,622.8,62,626.8,66,622.8,70,631.8,66" style="stroke:#181818;stroke-width:1.0;"/><polygon fill="#000000" points="548,57.1758,538.9549,54.2369,538.9549,60.1147,548,57.1758" style="stroke:#000000;stroke-width:1.0;"/><text fill="#000000" font-family="sans-serif" font-size="13" lengthAdjust="spacing" textLength="49" x="552" y="62.4951">contains</text></g><!--SRC=[NOz13e8m44NtFSKiDS85MB2GAxWZnDGoseRI4ZeWn7XtOGY8hcP-E-__V8jt0lBGceScA4sBYent0brNGwOnXClO8Bm4mCrALKtpgGtXebqbta8eAqE03AtbktZ7gNNZT-C8XcqRPtQ5DQhgx6LR_blaHLuiDlozqRKShiEF6YTrWgOZPWyS5Yr9qTVlc43lJJbdxqBZEEK2WbkmsZeaeBmZQLo0z0C0]--></g></svg>