<?xml version="1.0" encoding="us-ascii" standalone="no"?><svg xmlns="http://www.w3.org/2000/svg" xmlns:xlink="http://www.w3.org/1999/xlink" contentStyleType="text/css" height="543px" preserveAspectRatio="none" style="width:646px;height:543px;background:#FFFFFF;" version="1.1" viewBox="0 0 646 543" width="646px" zoomAndPan="magnify"><defs/><g><!--cluster ???--><g id="cluster_&#36845;&#20195;&#22120;"><path d="M291.5,6 L335.8125,6 A3.75,3.75 0 0 1 338.3125,8.5 L345.3125,29.6094 L636.5,29.6094 A2.5,2.5 0 0 1 639,32.1094 L639,354 A2.5,2.5 0 0 1 636.5,356.5 L291.5,356.5 A2.5,2.5 0 0 1 289,354 L289,8.5 A2.5,2.5 0 0 1 291.5,6 " fill="none" style="stroke:#000000;stroke-width:1.5;"/><line style="stroke:#000000;stroke-width:1.5;" x1="289" x2="345.3125" y1="29.6094" y2="29.6094"/><text fill="#000000" font-family="sans-serif" font-size="14" font-weight="bold" lengthAdjust="spacing" textLength="43.3125" x="293" y="22.5332">&#36845;&#20195;&#22120;</text></g><!--class Iterator--><g id="elem_Iterator"><rect codeLine="25" fill="#F1F1F1" height="83.2188" id="Iterator" rx="2.5" ry="2.5" style="stroke:#181818;stroke-width:0.5;" width="141" x="394.5" y="42"/><ellipse cx="426.15" cy="58" fill="#B4A7E5" rx="11" ry="11" style="stroke:#181818;stroke-width:1.0;"/><path d="M427.1031,54.6406 L427.1031,61.2969 L428.8219,61.2969 Q429.4313,61.2969 429.6969,61.5313 Q429.9625,61.7656 429.9625,62.1563 Q429.9625,62.5313 429.6969,62.7656 Q429.4313,63 428.8219,63 L423.6813,63 Q423.0719,63 422.8063,62.7656 Q422.5406,62.5313 422.5406,62.1406 Q422.5406,61.7656 422.8063,61.5313 Q423.0719,61.2969 423.6813,61.2969 L425.4,61.2969 L425.4,54.6406 L423.6813,54.6406 Q423.0719,54.6406 422.8063,54.4063 Q422.5406,54.1719 422.5406,53.7813 Q422.5406,53.4063 422.8063,53.1719 Q423.0719,52.9375 423.6813,52.9375 L428.8219,52.9375 Q429.4313,52.9375 429.6969,53.1719 Q429.9625,53.4063 429.9625,53.7813 Q429.9625,54.1719 429.6969,54.4063 Q429.4313,54.6406 428.8219,54.6406 L427.1031,54.6406 Z " fill="#000000"/><text fill="#000000" font-family="sans-serif" font-size="14" font-style="italic" lengthAdjust="spacing" textLength="46" x="443.85" y="63.7285">Iterator</text><rect fill="#FFFFFF" height="17.0938" style="stroke:#181818;stroke-width:1.0;stroke-dasharray:2.0,2.0;" width="24" x="514.5" y="39"/><text fill="#000000" font-family="sans-serif" font-size="12" font-style="italic" lengthAdjust="spacing" textLength="22" x="515.5" y="52.457">Cell</text><line style="stroke:#181818;stroke-width:0.5;" x1="395.5" x2="534.5" y1="74" y2="74"/><line style="stroke:#181818;stroke-width:0.5;" x1="395.5" x2="534.5" y1="82" y2="82"/><ellipse cx="405.5" cy="96.3047" fill="#84BE84" rx="3" ry="3" style="stroke:#038048;stroke-width:1.0;"/><text fill="#000000" font-family="sans-serif" font-size="14" lengthAdjust="spacing" textLength="115" x="414.5" y="100.5332">boolean hasNext()</text><ellipse cx="405.5" cy="113.9141" fill="#84BE84" rx="3" ry="3" style="stroke:#038048;stroke-width:1.0;"/><text fill="#000000" font-family="sans-serif" font-size="14" lengthAdjust="spacing" textLength="64" x="414.5" y="118.1426">Cell next()</text></g><!--class DefaultIter--><g id="elem_DefaultIter"><rect codeLine="30" fill="#F1F1F1" height="129.1406" id="DefaultIter" rx="2.5" ry="2.5" style="stroke:#181818;stroke-width:0.5;" width="141" x="305.5" y="211.5"/><ellipse cx="325.45" cy="232.8516" fill="#ADD1B2" rx="11" ry="11" style="stroke:#181818;stroke-width:1.0;"/><path d="M328.2156,228.7266 Q328.3719,228.5078 328.5594,228.3984 Q328.7469,228.2891 328.9656,228.2891 Q329.3406,228.2891 329.575,228.5547 Q329.8094,228.8047 329.8094,229.4141 L329.8094,230.8672 Q329.8094,231.4766 329.575,231.7422 Q329.3406,232.0078 328.9656,232.0078 Q328.6219,232.0078 328.4188,231.8047 Q328.2156,231.6172 328.1063,231.1016 Q328.0594,230.7422 327.8719,230.5547 Q327.5438,230.1797 326.9344,229.9609 Q326.325,229.7422 325.7,229.7422 Q324.9344,229.7422 324.2938,230.0703 Q323.6688,230.3984 323.1688,231.1484 Q322.6844,231.8984 322.6844,232.9297 L322.6844,234.0234 Q322.6844,235.2578 323.575,236.0859 Q324.4656,236.8984 326.0594,236.8984 Q326.9969,236.8984 327.6531,236.6484 Q328.0438,236.4922 328.4656,236.0547 Q328.7313,235.7891 328.8719,235.7109 Q329.0281,235.6328 329.2313,235.6328 Q329.5594,235.6328 329.8094,235.8984 Q330.075,236.1484 330.075,236.4922 Q330.075,236.8359 329.7313,237.2422 Q329.2313,237.8203 328.4344,238.1484 Q327.3563,238.6016 326.0594,238.6016 Q324.5438,238.6016 323.3406,237.9766 Q322.3563,237.4766 321.6688,236.4141 Q320.9813,235.3359 320.9813,234.0547 L320.9813,232.8984 Q320.9813,231.5703 321.5906,230.4297 Q322.2156,229.2734 323.3094,228.6641 Q324.4031,228.0391 325.6375,228.0391 Q326.3719,228.0391 327.0125,228.2109 Q327.6688,228.3672 328.2156,228.7266 Z " fill="#000000"/><text fill="#000000" font-family="sans-serif" font-size="12" font-style="italic" lengthAdjust="spacing" textLength="79" x="350.05" y="228.957">&#171;anonymous&#187;</text><text fill="#000000" font-family="sans-serif" font-size="14" lengthAdjust="spacing" textLength="98" x="340.55" y="246.127">Default_Iterator</text><line style="stroke:#181818;stroke-width:0.5;" x1="306.5" x2="445.5" y1="254.2031" y2="254.2031"/><rect fill="none" height="6" style="stroke:#C82930;stroke-width:1.0;" width="6" x="313.5" y="265.5078"/><text fill="#000000" font-family="sans-serif" font-size="14" lengthAdjust="spacing" textLength="25" x="325.5" y="272.7363">int x</text><rect fill="none" height="6" style="stroke:#C82930;stroke-width:1.0;" width="6" x="313.5" y="283.1172"/><text fill="#000000" font-family="sans-serif" font-size="14" lengthAdjust="spacing" textLength="26" x="325.5" y="290.3457">int y</text><line style="stroke:#181818;stroke-width:0.5;" x1="306.5" x2="445.5" y1="297.4219" y2="297.4219"/><ellipse cx="316.5" cy="311.7266" fill="#84BE84" rx="3" ry="3" style="stroke:#038048;stroke-width:1.0;"/><text fill="#000000" font-family="sans-serif" font-size="14" lengthAdjust="spacing" textLength="115" x="325.5" y="315.9551">boolean hasNext()</text><ellipse cx="316.5" cy="329.3359" fill="#84BE84" rx="3" ry="3" style="stroke:#038048;stroke-width:1.0;"/><text fill="#000000" font-family="sans-serif" font-size="14" lengthAdjust="spacing" textLength="64" x="325.5" y="333.5645">Cell next()</text></g><!--class DirIter--><g id="elem_DirIter"><rect codeLine="37" fill="#F1F1F1" height="111.5313" id="DirIter" rx="2.5" ry="2.5" style="stroke:#181818;stroke-width:0.5;" width="141" x="481.5" y="220"/><ellipse cx="496.5" cy="241.3516" fill="#ADD1B2" rx="11" ry="11" style="stroke:#181818;stroke-width:1.0;"/><path d="M499.2656,237.2266 Q499.4219,237.0078 499.6094,236.8984 Q499.7969,236.7891 500.0156,236.7891 Q500.3906,236.7891 500.625,237.0547 Q500.8594,237.3047 500.8594,237.9141 L500.8594,239.3672 Q500.8594,239.9766 500.625,240.2422 Q500.3906,240.5078 500.0156,240.5078 Q499.6719,240.5078 499.4688,240.3047 Q499.2656,240.1172 499.1563,239.6016 Q499.1094,239.2422 498.9219,239.0547 Q498.5938,238.6797 497.9844,238.4609 Q497.375,238.2422 496.75,238.2422 Q495.9844,238.2422 495.3438,238.5703 Q494.7188,238.8984 494.2188,239.6484 Q493.7344,240.3984 493.7344,241.4297 L493.7344,242.5234 Q493.7344,243.7578 494.625,244.5859 Q495.5156,245.3984 497.1094,245.3984 Q498.0469,245.3984 498.7031,245.1484 Q499.0938,244.9922 499.5156,244.5547 Q499.7813,244.2891 499.9219,244.2109 Q500.0781,244.1328 500.2813,244.1328 Q500.6094,244.1328 500.8594,244.3984 Q501.125,244.6484 501.125,244.9922 Q501.125,245.3359 500.7813,245.7422 Q500.2813,246.3203 499.4844,246.6484 Q498.4063,247.1016 497.1094,247.1016 Q495.5938,247.1016 494.3906,246.4766 Q493.4063,245.9766 492.7188,244.9141 Q492.0313,243.8359 492.0313,242.5547 L492.0313,241.3984 Q492.0313,240.0703 492.6406,238.9297 Q493.2656,237.7734 494.3594,237.1641 Q495.4531,236.5391 496.6875,236.5391 Q497.4219,236.5391 498.0625,236.7109 Q498.7188,236.8672 499.2656,237.2266 Z " fill="#000000"/><text fill="#000000" font-family="sans-serif" font-size="12" font-style="italic" lengthAdjust="spacing" textLength="79" x="525.5" y="237.457">&#171;anonymous&#187;</text><text fill="#000000" font-family="sans-serif" font-size="14" lengthAdjust="spacing" textLength="109" x="510.5" y="254.627">Direction_Iterator</text><line style="stroke:#181818;stroke-width:0.5;" x1="482.5" x2="621.5" y1="262.7031" y2="262.7031"/><rect fill="none" height="6" style="stroke:#C82930;stroke-width:1.0;" width="6" x="489.5" y="274.0078"/><text fill="#000000" font-family="sans-serif" font-size="14" lengthAdjust="spacing" textLength="44" x="501.5" y="281.2363">Point p</text><line style="stroke:#181818;stroke-width:0.5;" x1="482.5" x2="621.5" y1="288.3125" y2="288.3125"/><ellipse cx="492.5" cy="302.6172" fill="#84BE84" rx="3" ry="3" style="stroke:#038048;stroke-width:1.0;"/><text fill="#000000" font-family="sans-serif" font-size="14" lengthAdjust="spacing" textLength="115" x="501.5" y="306.8457">boolean hasNext()</text><ellipse cx="492.5" cy="320.2266" fill="#84BE84" rx="3" ry="3" style="stroke:#038048;stroke-width:1.0;"/><text fill="#000000" font-family="sans-serif" font-size="14" lengthAdjust="spacing" textLength="64" x="501.5" y="324.4551">Cell next()</text></g><!--class Iterable--><g id="elem_Iterable"><rect codeLine="2" fill="#F1F1F1" height="65.6094" id="Iterable" rx="2.5" ry="2.5" style="stroke:#181818;stroke-width:0.5;" width="170" x="55" y="243"/><ellipse cx="98.8" cy="259" fill="#B4A7E5" rx="11" ry="11" style="stroke:#181818;stroke-width:1.0;"/><path d="M99.7531,255.6406 L99.7531,262.2969 L101.4719,262.2969 Q102.0813,262.2969 102.3469,262.5313 Q102.6125,262.7656 102.6125,263.1563 Q102.6125,263.5313 102.3469,263.7656 Q102.0813,264 101.4719,264 L96.3313,264 Q95.7219,264 95.4563,263.7656 Q95.1906,263.5313 95.1906,263.1406 Q95.1906,262.7656 95.4563,262.5313 Q95.7219,262.2969 96.3313,262.2969 L98.05,262.2969 L98.05,255.6406 L96.3313,255.6406 Q95.7219,255.6406 95.4563,255.4063 Q95.1906,255.1719 95.1906,254.7813 Q95.1906,254.4063 95.4563,254.1719 Q95.7219,253.9375 96.3313,253.9375 L101.4719,253.9375 Q102.0813,253.9375 102.3469,254.1719 Q102.6125,254.4063 102.6125,254.7813 Q102.6125,255.1719 102.3469,255.4063 Q102.0813,255.6406 101.4719,255.6406 L99.7531,255.6406 Z " fill="#000000"/><text fill="#000000" font-family="sans-serif" font-size="14" font-style="italic" lengthAdjust="spacing" textLength="48" x="119.2" y="264.7285">Iterable</text><rect fill="#FFFFFF" height="17.0938" style="stroke:#181818;stroke-width:1.0;stroke-dasharray:2.0,2.0;" width="24" x="204" y="240"/><text fill="#000000" font-family="sans-serif" font-size="12" font-style="italic" lengthAdjust="spacing" textLength="22" x="205" y="253.457">Cell</text><line style="stroke:#181818;stroke-width:0.5;" x1="56" x2="224" y1="275" y2="275"/><line style="stroke:#181818;stroke-width:0.5;" x1="56" x2="224" y1="283" y2="283"/><ellipse cx="66" cy="297.3047" fill="#84BE84" rx="3" ry="3" style="stroke:#038048;stroke-width:1.0;"/><text fill="#000000" font-family="sans-serif" font-size="14" lengthAdjust="spacing" textLength="144" x="75" y="301.5332">Iterator&lt;Cell&gt; iterator()</text></g><!--class Direction--><g id="elem_Direction"><rect codeLine="6" fill="#F1F1F1" height="136.0469" id="Direction" rx="2.5" ry="2.5" style="stroke:#181818;stroke-width:0.5;" width="88" x="508" y="400.5"/><ellipse cx="523" cy="416.5" fill="#EB937F" rx="11" ry="11" style="stroke:#181818;stroke-width:1.0;"/><path d="M521.8594,417.2969 L521.8594,419.7969 L526.1875,419.7969 L526.1875,418.875 Q526.1875,418.2656 526.4219,418 Q526.6719,417.7344 527.0469,417.7344 Q527.4219,417.7344 527.6563,418 Q527.8906,418.2656 527.8906,418.875 L527.8906,421.5 L519.8906,421.5 Q519.2656,421.5 519,421.2656 Q518.75,421.0313 518.75,420.6406 Q518.75,420.2656 519.0156,420.0313 Q519.2813,419.7969 519.8906,419.7969 L520.1563,419.7969 L520.1563,413.1406 L519.8906,413.1406 Q519.2656,413.1406 519,412.9063 Q518.75,412.6719 518.75,412.2813 Q518.75,411.9063 519,411.6719 Q519.2656,411.4375 519.8906,411.4375 L527.5156,411.4375 L527.5156,414.0313 Q527.5156,414.6406 527.2813,414.9063 Q527.0625,415.1563 526.6719,415.1563 Q526.2969,415.1563 526.0625,414.9063 Q525.8281,414.6406 525.8281,414.0313 L525.8281,413.1406 L521.8594,413.1406 L521.8594,415.5938 L523.3438,415.5938 Q523.3438,414.9375 523.4688,414.75 Q523.7344,414.3438 524.2031,414.3438 Q524.5781,414.3438 524.8125,414.6094 Q525.0469,414.8594 525.0469,415.4688 L525.0469,417.4375 Q525.0469,417.9844 524.9219,418.1719 Q524.6563,418.5625 524.2031,418.5625 Q523.7344,418.5625 523.4688,418.1563 Q523.3438,417.9688 523.3438,417.2969 L521.8594,417.2969 Z " fill="#000000"/><text fill="#000000" font-family="sans-serif" font-size="14" lengthAdjust="spacing" textLength="56" x="537" y="422.2285">Direction</text><line style="stroke:#181818;stroke-width:0.5;" x1="509" x2="595" y1="432.5" y2="432.5"/><text fill="#000000" font-family="sans-serif" font-size="14" lengthAdjust="spacing" textLength="16" x="528" y="451.0332">up</text><text fill="#000000" font-family="sans-serif" font-size="14" lengthAdjust="spacing" textLength="33" x="528" y="468.6426">down</text><text fill="#000000" font-family="sans-serif" font-size="14" lengthAdjust="spacing" textLength="19" x="528" y="486.252">left</text><text fill="#000000" font-family="sans-serif" font-size="14" lengthAdjust="spacing" textLength="12" x="528" y="503.8613">...</text><rect fill="none" height="6" style="stroke:#C82930;stroke-width:1.0;" width="6" x="516" y="514.2422"/><text fill="#000000" font-family="sans-serif" font-size="14" lengthAdjust="spacing" textLength="44" x="528" y="521.4707">Point p</text><line style="stroke:#181818;stroke-width:0.5;" x1="509" x2="595" y1="528.5469" y2="528.5469"/></g><!--class CheckBoard--><g id="elem_CheckBoard"><rect codeLine="15" fill="#F1F1F1" height="136.0469" id="CheckBoard" rx="2.5" ry="2.5" style="stroke:#181818;stroke-width:0.5;" width="266" x="7" y="15.5"/><ellipse cx="96.75" cy="31.5" fill="#ADD1B2" rx="11" ry="11" style="stroke:#181818;stroke-width:1.0;"/><path d="M99.5156,27.375 Q99.6719,27.1563 99.8594,27.0469 Q100.0469,26.9375 100.2656,26.9375 Q100.6406,26.9375 100.875,27.2031 Q101.1094,27.4531 101.1094,28.0625 L101.1094,29.5156 Q101.1094,30.125 100.875,30.3906 Q100.6406,30.6563 100.2656,30.6563 Q99.9219,30.6563 99.7188,30.4531 Q99.5156,30.2656 99.4063,29.75 Q99.3594,29.3906 99.1719,29.2031 Q98.8438,28.8281 98.2344,28.6094 Q97.625,28.3906 97,28.3906 Q96.2344,28.3906 95.5938,28.7188 Q94.9688,29.0469 94.4688,29.7969 Q93.9844,30.5469 93.9844,31.5781 L93.9844,32.6719 Q93.9844,33.9063 94.875,34.7344 Q95.7656,35.5469 97.3594,35.5469 Q98.2969,35.5469 98.9531,35.2969 Q99.3438,35.1406 99.7656,34.7031 Q100.0313,34.4375 100.1719,34.3594 Q100.3281,34.2813 100.5313,34.2813 Q100.8594,34.2813 101.1094,34.5469 Q101.375,34.7969 101.375,35.1406 Q101.375,35.4844 101.0313,35.8906 Q100.5313,36.4688 99.7344,36.7969 Q98.6563,37.25 97.3594,37.25 Q95.8438,37.25 94.6406,36.625 Q93.6563,36.125 92.9688,35.0625 Q92.2813,33.9844 92.2813,32.7031 L92.2813,31.5469 Q92.2813,30.2188 92.8906,29.0781 Q93.5156,27.9219 94.6094,27.3125 Q95.7031,26.6875 96.9375,26.6875 Q97.6719,26.6875 98.3125,26.8594 Q98.9688,27.0156 99.5156,27.375 Z " fill="#000000"/><text fill="#000000" font-family="sans-serif" font-size="14" lengthAdjust="spacing" textLength="78" x="117.25" y="37.2285">CheckBoard</text><line style="stroke:#181818;stroke-width:0.5;" x1="8" x2="272" y1="47.5" y2="47.5"/><rect fill="none" height="6" style="stroke:#C82930;stroke-width:1.0;" width="6" x="15" y="58.8047"/><text fill="#000000" font-family="sans-serif" font-size="14" lengthAdjust="spacing" textLength="167" x="27" y="66.0332">ChessType[][] chessBoard</text><rect fill="none" height="6" style="stroke:#C82930;stroke-width:1.0;" width="6" x="15" y="76.4141"/><text fill="#000000" font-family="sans-serif" font-size="14" lengthAdjust="spacing" textLength="58" x="27" y="83.6426">int max_x</text><rect fill="none" height="6" style="stroke:#C82930;stroke-width:1.0;" width="6" x="15" y="94.0234"/><text fill="#000000" font-family="sans-serif" font-size="14" lengthAdjust="spacing" textLength="59" x="27" y="101.252">int max_y</text><line style="stroke:#181818;stroke-width:0.5;" x1="8" x2="272" y1="108.3281" y2="108.3281"/><ellipse cx="18" cy="122.6328" fill="#84BE84" rx="3" ry="3" style="stroke:#038048;stroke-width:1.0;"/><text fill="#000000" font-family="sans-serif" font-size="14" lengthAdjust="spacing" textLength="144" x="27" y="126.8613">Iterator&lt;Cell&gt; iterator()</text><ellipse cx="18" cy="140.2422" fill="#84BE84" rx="3" ry="3" style="stroke:#038048;stroke-width:1.0;"/><text fill="#000000" font-family="sans-serif" font-size="14" lengthAdjust="spacing" textLength="240" x="27" y="144.4707">Iterator&lt;Cell&gt; iterator(Direction, Point)</text></g><!--link CheckBoard to Iterable--><g id="link_CheckBoard_Iterable"><path codeLine="46" d="M140,151.66 C140,182.62 140,199.93 140,224.81 " fill="none" id="CheckBoard-to-Iterable" style="stroke:#181818;stroke-width:1.0;stroke-dasharray:7.0,7.0;"/><polygon fill="none" points="140,242.81,146,224.81,134,224.81,140,242.81" style="stroke:#181818;stroke-width:1.0;"/></g><!--reverse link Iterator to DefaultIter--><g id="link_Iterator_DefaultIter"><path codeLine="47" d="M438.2877,141.6765 C426.5877,166.7065 418.99,182.98 405.74,211.34 " fill="none" id="Iterator-backto-DefaultIter" style="stroke:#181818;stroke-width:1.0;stroke-dasharray:7.0,7.0;"/><polygon fill="none" points="445.91,125.37,432.8522,139.1357,443.7232,144.2172,445.91,125.37" style="stroke:#181818;stroke-width:1.0;"/></g><!--reverse link Iterator to DirIter--><g id="link_Iterator_DirIter"><path codeLine="48" d="M491.1416,141.7415 C503.7316,169.2915 513,189.6 526.76,219.74 " fill="none" id="Iterator-backto-DirIter" style="stroke:#181818;stroke-width:1.0;stroke-dasharray:7.0,7.0;"/><polygon fill="none" points="483.66,125.37,485.6844,144.2354,496.5987,139.2476,483.66,125.37" style="stroke:#181818;stroke-width:1.0;"/></g><!--link CheckBoard to DefaultIter--><g id="link_CheckBoard_DefaultIter"><path codeLine="49" d="M223.2,151.66 C250.01,173.3 274.7819,193.2905 300.6019,214.1405 " fill="none" id="CheckBoard-to-DefaultIter" style="stroke:#181818;stroke-width:1.0;stroke-dasharray:7.0,7.0;"/><polygon fill="#181818" points="305.27,217.91,300.7809,209.1437,301.38,214.7687,295.7549,215.3678,305.27,217.91" style="stroke:#181818;stroke-width:1.0;"/></g><!--link CheckBoard to DirIter--><g id="link_CheckBoard_DirIter"><path codeLine="50" d="M273.37,145.19 C278.63,147.35 283.86,149.47 289,151.5 C365.47,181.73 390.98,173.7 464,211.5 C469.69,214.44 470.3088,214.5874 475.9688,218.0674 " fill="none" id="CheckBoard-to-DirIter" style="stroke:#181818;stroke-width:1.0;stroke-dasharray:7.0,7.0;"/><polygon fill="#181818" points="481.08,221.21,475.5083,213.0887,476.8207,218.5912,471.3182,219.9036,481.08,221.21" style="stroke:#181818;stroke-width:1.0;"/></g><!--link DirIter to Direction--><g id="link_DirIter_Direction"><path codeLine="51" d="M552,332.1 C552,353.42 552,372.02 552,394.36 " fill="none" id="DirIter-to-Direction" style="stroke:#181818;stroke-width:1.0;"/><polygon fill="#181818" points="552,400.36,556,391.36,552,395.36,548,391.36,552,400.36" style="stroke:#181818;stroke-width:1.0;"/></g><!--SRC=[dLAzJiCm4Dxz5ATC88YV8F90kx0W1hQggbpNeLOTEueTaOZsGPXPM7W21bu691u3s_bfaY4IBBRlktntttqveImlKieuHBVkHRUI9mik9Oc06kWWU4PNJM1rqUH1jE759JeXn5MPmL8Kd5cXbViUeCpTiTDFobsIfzPT66Dtnd2lXRAGUo9YaXe3YprdXnjDYrtWnXumvg7E-MgzMWFpKKY7f6TdjDfKewXsqPpCkMml_ReH5uRAAJlGHsVDp-VxryVhzyjRvDIvEcBYMb_mx9g3mYI-wLPhoQc2FJLtlB91YiSz1LI7d7pbnereoLDQIhlfIeMwBUWnI1AWIgiwqwK1GjfMZHVLu5t_NqBdo4I4A6O5TB_sRstz8g313c1y9FtseTxGv8Znq8Pffj4sBaH6X6cgPNHJnJ4vR_4l]--></g></svg>