<?xml version="1.0" encoding="us-ascii" standalone="no"?><svg xmlns="http://www.w3.org/2000/svg" xmlns:xlink="http://www.w3.org/1999/xlink" contentStyleType="text/css" height="233px" preserveAspectRatio="none" style="width:397px;height:233px;background:#FFFFFF;" version="1.1" viewBox="0 0 397 233" width="397px" zoomAndPan="magnify"><defs/><g><!--class Car--><g id="elem_Car"><rect codeLine="2" fill="#F1F1F1" height="100.8281" id="Car" rx="2.5" ry="2.5" style="stroke:#181818;stroke-width:0.5;" width="155" x="7" y="71"/><ellipse cx="68.75" cy="87" fill="#ADD1B2" rx="11" ry="11" style="stroke:#181818;stroke-width:1.0;"/><path d="M71.5156,82.875 Q71.6719,82.6563 71.8594,82.5469 Q72.0469,82.4375 72.2656,82.4375 Q72.6406,82.4375 72.875,82.7031 Q73.1094,82.9531 73.1094,83.5625 L73.1094,85.0156 Q73.1094,85.625 72.875,85.8906 Q72.6406,86.1563 72.2656,86.1563 Q71.9219,86.1563 71.7188,85.9531 Q71.5156,85.7656 71.4063,85.25 Q71.3594,84.8906 71.1719,84.7031 Q70.8438,84.3281 70.2344,84.1094 Q69.625,83.8906 69,83.8906 Q68.2344,83.8906 67.5938,84.2188 Q66.9688,84.5469 66.4688,85.2969 Q65.9844,86.0469 65.9844,87.0781 L65.9844,88.1719 Q65.9844,89.4063 66.875,90.2344 Q67.7656,91.0469 69.3594,91.0469 Q70.2969,91.0469 70.9531,90.7969 Q71.3438,90.6406 71.7656,90.2031 Q72.0313,89.9375 72.1719,89.8594 Q72.3281,89.7813 72.5313,89.7813 Q72.8594,89.7813 73.1094,90.0469 Q73.375,90.2969 73.375,90.6406 Q73.375,90.9844 73.0313,91.3906 Q72.5313,91.9688 71.7344,92.2969 Q70.6563,92.75 69.3594,92.75 Q67.8438,92.75 66.6406,92.125 Q65.6563,91.625 64.9688,90.5625 Q64.2813,89.4844 64.2813,88.2031 L64.2813,87.0469 Q64.2813,85.7188 64.8906,84.5781 Q65.5156,83.4219 66.6094,82.8125 Q67.7031,82.1875 68.9375,82.1875 Q69.6719,82.1875 70.3125,82.3594 Q70.9688,82.5156 71.5156,82.875 Z " fill="#000000"/><text fill="#000000" font-family="sans-serif" font-size="14" lengthAdjust="spacing" textLength="23" x="89.25" y="92.7285">Car</text><line style="stroke:#181818;stroke-width:0.5;" x1="8" x2="161" y1="103" y2="103"/><rect fill="none" height="6" style="stroke:#C82930;stroke-width:1.0;" width="6" x="15" y="114.3047"/><text fill="#000000" font-family="sans-serif" font-size="14" lengthAdjust="spacing" textLength="83" x="27" y="121.5332">model: String</text><rect fill="none" height="6" style="stroke:#C82930;stroke-width:1.0;" width="6" x="15" y="131.9141"/><text fill="#000000" font-family="sans-serif" font-size="14" lengthAdjust="spacing" textLength="129" x="27" y="139.1426">manufacturer: String</text><line style="stroke:#181818;stroke-width:0.5;" x1="8" x2="161" y1="146.2188" y2="146.2188"/><ellipse cx="18" cy="160.5234" fill="#84BE84" rx="3" ry="3" style="stroke:#038048;stroke-width:1.0;"/><text fill="#000000" font-family="sans-serif" font-size="14" lengthAdjust="spacing" textLength="75" x="27" y="164.752">drive(): void</text></g><!--class Engine--><g id="elem_Engine"><rect codeLine="8" fill="#F1F1F1" height="100.8281" id="Engine" rx="2.5" ry="2.5" style="stroke:#181818;stroke-width:0.5;" width="98" x="280.5" y="7"/><ellipse cx="305.4" cy="23" fill="#ADD1B2" rx="11" ry="11" style="stroke:#181818;stroke-width:1.0;"/><path d="M308.1656,18.875 Q308.3219,18.6563 308.5094,18.5469 Q308.6969,18.4375 308.9156,18.4375 Q309.2906,18.4375 309.525,18.7031 Q309.7594,18.9531 309.7594,19.5625 L309.7594,21.0156 Q309.7594,21.625 309.525,21.8906 Q309.2906,22.1563 308.9156,22.1563 Q308.5719,22.1563 308.3688,21.9531 Q308.1656,21.7656 308.0563,21.25 Q308.0094,20.8906 307.8219,20.7031 Q307.4938,20.3281 306.8844,20.1094 Q306.275,19.8906 305.65,19.8906 Q304.8844,19.8906 304.2438,20.2188 Q303.6188,20.5469 303.1188,21.2969 Q302.6344,22.0469 302.6344,23.0781 L302.6344,24.1719 Q302.6344,25.4063 303.525,26.2344 Q304.4156,27.0469 306.0094,27.0469 Q306.9469,27.0469 307.6031,26.7969 Q307.9938,26.6406 308.4156,26.2031 Q308.6813,25.9375 308.8219,25.8594 Q308.9781,25.7813 309.1813,25.7813 Q309.5094,25.7813 309.7594,26.0469 Q310.025,26.2969 310.025,26.6406 Q310.025,26.9844 309.6813,27.3906 Q309.1813,27.9688 308.3844,28.2969 Q307.3063,28.75 306.0094,28.75 Q304.4938,28.75 303.2906,28.125 Q302.3063,27.625 301.6188,26.5625 Q300.9313,25.4844 300.9313,24.2031 L300.9313,23.0469 Q300.9313,21.7188 301.5406,20.5781 Q302.1656,19.4219 303.2594,18.8125 Q304.3531,18.1875 305.5875,18.1875 Q306.3219,18.1875 306.9625,18.3594 Q307.6188,18.5156 308.1656,18.875 Z " fill="#000000"/><text fill="#000000" font-family="sans-serif" font-size="14" lengthAdjust="spacing" textLength="44" x="321.6" y="28.7285">Engine</text><line style="stroke:#181818;stroke-width:0.5;" x1="281.5" x2="377.5" y1="39" y2="39"/><rect fill="none" height="6" style="stroke:#C82930;stroke-width:1.0;" width="6" x="288.5" y="50.3047"/><text fill="#000000" font-family="sans-serif" font-size="14" lengthAdjust="spacing" textLength="61" x="300.5" y="57.5332">power: int</text><rect fill="none" height="6" style="stroke:#C82930;stroke-width:1.0;" width="6" x="288.5" y="67.9141"/><text fill="#000000" font-family="sans-serif" font-size="14" lengthAdjust="spacing" textLength="72" x="300.5" y="75.1426">type: String</text><line style="stroke:#181818;stroke-width:0.5;" x1="281.5" x2="377.5" y1="82.2188" y2="82.2188"/><ellipse cx="291.5" cy="96.5234" fill="#84BE84" rx="3" ry="3" style="stroke:#038048;stroke-width:1.0;"/><text fill="#000000" font-family="sans-serif" font-size="14" lengthAdjust="spacing" textLength="72" x="300.5" y="100.752">start(): void</text></g><!--class Wheel--><g id="elem_Wheel"><rect codeLine="14" fill="#F1F1F1" height="83.2188" id="Wheel" rx="2.5" ry="2.5" style="stroke:#181818;stroke-width:0.5;" width="121" x="269" y="143"/><ellipse cx="306.05" cy="159" fill="#ADD1B2" rx="11" ry="11" style="stroke:#181818;stroke-width:1.0;"/><path d="M308.8156,154.875 Q308.9719,154.6563 309.1594,154.5469 Q309.3469,154.4375 309.5656,154.4375 Q309.9406,154.4375 310.175,154.7031 Q310.4094,154.9531 310.4094,155.5625 L310.4094,157.0156 Q310.4094,157.625 310.175,157.8906 Q309.9406,158.1563 309.5656,158.1563 Q309.2219,158.1563 309.0188,157.9531 Q308.8156,157.7656 308.7063,157.25 Q308.6594,156.8906 308.4719,156.7031 Q308.1438,156.3281 307.5344,156.1094 Q306.925,155.8906 306.3,155.8906 Q305.5344,155.8906 304.8938,156.2188 Q304.2688,156.5469 303.7688,157.2969 Q303.2844,158.0469 303.2844,159.0781 L303.2844,160.1719 Q303.2844,161.4063 304.175,162.2344 Q305.0656,163.0469 306.6594,163.0469 Q307.5969,163.0469 308.2531,162.7969 Q308.6438,162.6406 309.0656,162.2031 Q309.3313,161.9375 309.4719,161.8594 Q309.6281,161.7813 309.8313,161.7813 Q310.1594,161.7813 310.4094,162.0469 Q310.675,162.2969 310.675,162.6406 Q310.675,162.9844 310.3313,163.3906 Q309.8313,163.9688 309.0344,164.2969 Q307.9563,164.75 306.6594,164.75 Q305.1438,164.75 303.9406,164.125 Q302.9563,163.625 302.2688,162.5625 Q301.5813,161.4844 301.5813,160.2031 L301.5813,159.0469 Q301.5813,157.7188 302.1906,156.5781 Q302.8156,155.4219 303.9094,154.8125 Q305.0031,154.1875 306.2375,154.1875 Q306.9719,154.1875 307.6125,154.3594 Q308.2688,154.5156 308.8156,154.875 Z " fill="#000000"/><text fill="#000000" font-family="sans-serif" font-size="14" lengthAdjust="spacing" textLength="40" x="324.95" y="164.7285">Wheel</text><line style="stroke:#181818;stroke-width:0.5;" x1="270" x2="389" y1="175" y2="175"/><rect fill="none" height="6" style="stroke:#C82930;stroke-width:1.0;" width="6" x="277" y="186.3047"/><text fill="#000000" font-family="sans-serif" font-size="14" lengthAdjust="spacing" textLength="47" x="289" y="193.5332">size: int</text><ellipse cx="280" cy="206.9141" fill="none" rx="3" ry="3" style="stroke:#038048;stroke-width:1.0;"/><text fill="#000000" font-family="sans-serif" font-size="14" lengthAdjust="spacing" textLength="95" x="289" y="211.1426">material: String</text><line style="stroke:#181818;stroke-width:0.5;" x1="270" x2="389" y1="218.2188" y2="218.2188"/></g><!--reverse link Car to Engine--><g id="link_Car_Engine"><path codeLine="18" d="M173.6541,98.283 C212.3341,88.093 246.48,79.1 280.21,70.22 " fill="none" id="Car-backto-Engine" style="stroke:#181818;stroke-width:1.0;"/><polygon fill="#181818" points="162.05,101.34,168.871,103.6795,173.6541,98.283,166.833,95.9435,162.05,101.34" style="stroke:#181818;stroke-width:1.0;"/><polygon fill="#000000" points="207.3351,72.4024,197.8398,71.864,199.3368,77.548,207.3351,72.4024" style="stroke:#000000;stroke-width:1.0;"/><text fill="#000000" font-family="sans-serif" font-size="13" lengthAdjust="spacing" textLength="21" x="211.5" y="78.9951">has</text></g><!--reverse link Car to Wheel--><g id="link_Car_Wheel"><path codeLine="19" d="M173.6663,144.3601 C208.1663,153.3001 236.68,160.7 268.9,169.05 " fill="none" id="Car-backto-Wheel" style="stroke:#181818;stroke-width:1.0;"/><polygon fill="#181818" points="162.05,141.35,166.8548,146.7272,173.6663,144.3601,168.8615,138.983,162.05,141.35" style="stroke:#181818;stroke-width:1.0;"/><polygon fill="#000000" points="201.84,141.9306,193.8219,136.8158,192.3468,142.5055,201.84,141.9306" style="stroke:#000000;stroke-width:1.0;"/><text fill="#000000" font-family="sans-serif" font-size="13" lengthAdjust="spacing" textLength="32" x="206" y="145.9951">has 4</text></g><!--SRC=[ROux3i8m44Hxds9A84f7bO86SG8AQYlU92iPErflWW1nTnBo4KYK-qRpTZnL2eqGhXk5Ow5IEGPJUfiIZbRmD42EQtJa2vnLEDGJiQ6hRAcTa7m56PnmJvjjWJwoWtcPMNOADGUQVMsyZJKE-ZdrtjAF9AaL_IEvD4H-TYH-qAB8XZrAmdOTEPR6_RiyNruNQ6p20IkVR1FU3y4R]--></g></svg>